<svg width="1296" height="572" viewBox="0 0 1296 572" fill="none" xmlns="http://www.w3.org/2000/svg">
<g clip-path="url(#clip0)">
<g style="mix-blend-mode:overlay">
<circle cx="793.418" cy="141.722" r="4.55411" fill="white"/>
<circle cx="978.314" cy="259.218" r="4.55411" fill="white"/>
<circle cx="683.208" cy="274.702" r="4.55411" fill="white"/>
<circle cx="1165.03" cy="193.639" r="4.55411" fill="white"/>
<circle cx="995.62" cy="496.032" r="4.55411" fill="white"/>
<circle cx="828.484" cy="465.519" r="2.27705" fill="white"/>
<circle cx="859.452" cy="240.546" r="2.27705" fill="white"/>
<circle cx="1012.47" cy="165.859" r="2.27705" fill="white"/>
<circle cx="1139.99" cy="302.482" r="2.27705" fill="white"/>
<circle cx="1206.48" cy="465.519" r="2.27705" fill="white"/>
<circle cx="716.453" cy="532.009" r="2.27705" fill="white"/>
<circle cx="676.377" cy="108.477" r="2.27705" fill="white"/>
<circle cx="761.539" cy="221.874" r="0.910822" fill="white"/>
<circle cx="922.754" cy="147.187" r="0.910822" fill="white"/>
<circle cx="920.933" cy="462.331" r="0.910822" fill="white"/>
<circle cx="862.64" cy="559.789" r="0.910822" fill="white"/>
<circle cx="1105.83" cy="460.51" r="0.910822" fill="white"/>
<circle cx="1136.8" cy="535.197" r="0.910822" fill="white"/>
<circle cx="1252.47" cy="241.002" r="0.910822" fill="white"/>
<circle cx="1143.17" cy="121.684" r="0.910822" fill="white"/>
</g>
<g style="mix-blend-mode:overlay">
<circle cx="506.318" cy="110.222" r="4.55411" fill="white"/>
<circle cx="691.214" cy="227.718" r="4.55411" fill="white"/>
<circle cx="396.108" cy="243.202" r="4.55411" fill="white"/>
<circle cx="877.933" cy="162.139" r="4.55411" fill="white"/>
<circle cx="708.52" cy="464.532" r="4.55411" fill="white"/>
<circle cx="541.384" cy="434.019" r="2.27705" fill="white"/>
<circle cx="572.352" cy="209.046" r="2.27705" fill="white"/>
<circle cx="725.37" cy="134.359" r="2.27705" fill="white"/>
<circle cx="852.885" cy="270.982" r="2.27705" fill="white"/>
<circle cx="919.375" cy="434.019" r="2.27705" fill="white"/>
<circle cx="429.353" cy="500.509" r="2.27705" fill="white"/>
<circle cx="389.277" cy="76.9771" r="2.27705" fill="white"/>
<circle cx="474.439" cy="190.374" r="0.910822" fill="white"/>
<circle cx="635.654" cy="115.687" r="0.910822" fill="white"/>
<circle cx="633.833" cy="430.831" r="0.910822" fill="white"/>
<circle cx="575.54" cy="528.289" r="0.910822" fill="white"/>
<circle cx="818.73" cy="429.01" r="0.910822" fill="white"/>
<circle cx="849.697" cy="503.697" r="0.910822" fill="white"/>
<circle cx="965.372" cy="209.502" r="0.910822" fill="white"/>
<circle cx="856.073" cy="90.184" r="0.910822" fill="white"/>
</g>
<g style="mix-blend-mode:overlay">
<path d="M1441.23 386.1C1441.23 504.399 832.95 575.55 701.1 462.15C569.25 348.75 513.45 262.8 621.785 172.35C730.12 81.8999 894.15 86.3999 1020.6 215.55C1147.05 344.7 1239.63 74.3103 1349.1 79.65C1458.57 84.9898 1441.23 334.473 1441.23 386.1Z" fill="url(#paint0_linear)"/>
</g>
<g style="mix-blend-mode:overlay" opacity="0.4">
<circle cx="1078.65" cy="150.75" r="44.55" fill="url(#paint1_radial)"/>
</g>
<g style="mix-blend-mode:overlay" opacity="0.5">
<circle cx="582.3" cy="169.2" r="18.9" fill="url(#paint2_radial)"/>
</g>
</g>
<defs>
<linearGradient id="paint0_linear" x1="1180.35" y1="203.4" x2="662.85" y2="497.7" gradientUnits="userSpaceOnUse">
<stop stop-color="white" stop-opacity="0.08"/>
<stop offset="1" stop-color="white" stop-opacity="0"/>
</linearGradient>
<radialGradient id="paint1_radial" cx="0" cy="0" r="1" gradientUnits="userSpaceOnUse" gradientTransform="translate(1108.53 117.881) rotate(135) scale(62.6191)">
<stop stop-color="white"/>
<stop offset="1" stop-color="white" stop-opacity="0"/>
</radialGradient>
<radialGradient id="paint2_radial" cx="0" cy="0" r="1" gradientUnits="userSpaceOnUse" gradientTransform="translate(594.977 155.256) rotate(135) scale(26.5657)">
<stop stop-color="white"/>
<stop offset="1" stop-color="white" stop-opacity="0"/>
</radialGradient>
<clipPath id="clip0">
<rect width="1296" height="572" fill="white"/>
</clipPath>
</defs>
</svg>
